<?xml version="1.0" standalone="no"?>
<!DOCTYPE svg PUBLIC "-//W3C//DTD SVG 20010904//EN"
 "http://www.w3.org/TR/2001/REC-SVG-20010904/DTD/svg10.dtd">
<svg version="1.0" xmlns="http://www.w3.org/2000/svg"
 width="70.000000pt" height="70.000000pt" viewBox="0 0 70.000000 70.000000"
 preserveAspectRatio="xMidYMid meet">
<metadata>
Created by potrace 1.14, written by Peter Selinger 2001-2017
</metadata>
<g transform="translate(0.000000,70.000000) scale(0.100000,-0.100000)"
fill="#000000" stroke="none">
<path d="M0 350 l0 -350 330 0 c323 0 330 0 330 20 0 13 7 20 20 20 20 0 20 7
20 305 l0 305 -25 0 c-20 0 -25 5 -25 25 l0 25 -325 0 -325 0 0 -350z m500
155 l0 -86 -142 3 -143 3 -3 83 -3 82 146 0 145 0 0 -85z m0 -305 l0 -80 -145
0 -145 0 0 80 0 80 145 0 145 0 0 -80z"/>
</g>
</svg>
